<svg width="72" height="72" viewBox="0 0 72 72" fill="none" xmlns="http://www.w3.org/2000/svg">
<path d="M25.0847 25.0847C24.6715 25.4979 24.3437 25.9884 24.12 26.5283C23.8964 27.0681 23.7812 27.6468 23.7812 28.2312C23.7812 28.8155 23.8964 29.3942 24.12 29.9341C24.3437 30.4739 24.6715 30.9645 25.0847 31.3777L31.3946 37.6875L37.6876 31.3945L31.3777 25.0847C30.9645 24.6714 30.474 24.3436 29.9341 24.12C29.3943 23.8963 28.8156 23.7812 28.2312 23.7812C27.6469 23.7812 27.0682 23.8963 26.5283 24.12C25.9885 24.3436 25.4979 24.6714 25.0847 25.0847Z" fill="url(#paint0_linear_187_21)"/>
<path d="M31.3397 37.6074L56.4108 62.6785C58.1418 64.4095 60.9481 64.4097 62.6788 62.679C64.4095 60.9483 64.4093 58.142 62.6783 56.411L37.6073 31.3399M31.3397 37.6074L25.0722 31.3399C23.3412 29.6089 23.341 26.8027 25.0717 25.0719C26.8025 23.3412 29.6087 23.3414 31.3397 25.0724L37.6073 31.3399M31.3397 37.6074L37.6073 31.3399" stroke="#636573" stroke-miterlimit="10"/>
<path d="M6.75 27H13.5H6.75ZM12.6816 12.6816L17.4544 17.4544L12.6816 12.6816ZM27 6.75V13.5V6.75ZM41.3184 12.6816L36.5456 17.4544L41.3184 12.6816ZM17.4544 36.5456L12.6816 41.3184L17.4544 36.5456Z" fill="url(#paint1_linear_187_21)"/>
<path d="M6.75 27H13.5M12.6816 12.6816L17.4544 17.4544M27 6.75V13.5M41.3184 12.6816L36.5456 17.4544M17.4544 36.5456L12.6816 41.3184" stroke="url(#paint2_linear_187_21)" stroke-miterlimit="10" stroke-linecap="round"/>
<defs>
<linearGradient id="paint0_linear_187_21" x1="30.7344" y1="34.6455" x2="30.7344" y2="27.4751" gradientUnits="userSpaceOnUse">
<stop stop-color="#1F92E4"/>
<stop offset="1" stop-color="#1FC0E4"/>
</linearGradient>
<linearGradient id="paint1_linear_187_21" x1="24.0342" y1="33.7566" x2="24.0342" y2="15.9322" gradientUnits="userSpaceOnUse">
<stop stop-color="#1F92E4"/>
<stop offset="1" stop-color="#1FC0E4"/>
</linearGradient>
<linearGradient id="paint2_linear_187_21" x1="24.0342" y1="33.7566" x2="24.0342" y2="15.9322" gradientUnits="userSpaceOnUse">
<stop stop-color="#1F92E4"/>
<stop offset="1" stop-color="#1FC0E4"/>
</linearGradient>
</defs>
</svg>
