<svg width="72" height="72" viewBox="0 0 72 72" fill="none" xmlns="http://www.w3.org/2000/svg">
<path d="M9 20.25H40.8867C41.3523 21.5656 42.2142 22.7045 43.3537 23.51C44.4933 24.3155 45.8545 24.7481 47.25 24.7481C48.6455 24.7481 50.0067 24.3155 51.1463 23.51C52.2858 22.7045 53.1477 21.5656 53.6133 20.25H63C63.5967 20.25 64.169 20.0129 64.591 19.591C65.0129 19.169 65.25 18.5967 65.25 18C65.25 17.4033 65.0129 16.831 64.591 16.409C64.169 15.9871 63.5967 15.75 63 15.75H53.6133C53.1477 14.4344 52.2858 13.2955 51.1463 12.49C50.0067 11.6845 48.6455 11.2519 47.25 11.2519C45.8545 11.2519 44.4933 11.6845 43.3537 12.49C42.2142 13.2955 41.3523 14.4344 40.8867 15.75H9C8.40326 15.75 7.83097 15.9871 7.40901 16.409C6.98705 16.831 6.75 17.4033 6.75 18C6.75 18.5967 6.98705 19.169 7.40901 19.591C7.83097 20.0129 8.40326 20.25 9 20.25ZM63 51.75H53.6133C53.1477 50.4344 52.2858 49.2955 51.1463 48.49C50.0067 47.6845 48.6455 47.2519 47.25 47.2519C45.8545 47.2519 44.4933 47.6845 43.3537 48.49C42.2142 49.2955 41.3523 50.4344 40.8867 51.75H9C8.40326 51.75 7.83097 51.9871 7.40901 52.409C6.98705 52.831 6.75 53.4033 6.75 54C6.75 54.5967 6.98705 55.169 7.40901 55.591C7.83097 56.0129 8.40326 56.25 9 56.25H40.8867C41.3523 57.5656 42.2142 58.7045 43.3537 59.51C44.4933 60.3155 45.8545 60.7481 47.25 60.7481C48.6455 60.7481 50.0067 60.3155 51.1463 59.51C52.2858 58.7045 53.1477 57.5656 53.6133 56.25H63C63.5967 56.25 64.169 56.0129 64.591 55.591C65.0129 55.169 65.25 54.5967 65.25 54C65.25 53.4033 65.0129 52.831 64.591 52.409C64.169 51.9871 63.5967 51.75 63 51.75ZM63 33.75H31.1133C30.6477 32.4344 29.7858 31.2955 28.6463 30.49C27.5067 29.6845 26.1455 29.2519 24.75 29.2519C23.3545 29.2519 21.9933 29.6845 20.8537 30.49C19.7142 31.2955 18.8523 32.4344 18.3867 33.75H9C8.40326 33.75 7.83097 33.9871 7.40901 34.409C6.98705 34.831 6.75 35.4033 6.75 36C6.75 36.5967 6.98705 37.169 7.40901 37.591C7.83097 38.0129 8.40326 38.25 9 38.25H18.3867C18.8523 39.5656 19.7142 40.7045 20.8537 41.51C21.9933 42.3155 23.3545 42.7481 24.75 42.7481C26.1455 42.7481 27.5067 42.3155 28.6463 41.51C29.7858 40.7045 30.6477 39.5656 31.1133 38.25H63C63.5967 38.25 64.169 38.0129 64.591 37.591C65.0129 37.169 65.25 36.5967 65.25 36C65.25 35.4033 65.0129 34.831 64.591 34.409C64.169 33.9871 63.5967 33.75 63 33.75Z" fill="#636573"/>
<circle cx="47" cy="18" r="7" fill="url(#paint0_linear_187_7)"/>
<circle cx="25" cy="36" r="7" fill="url(#paint1_linear_187_7)"/>
<circle cx="47" cy="54" r="7" fill="url(#paint2_linear_187_7)"/>
<defs>
<linearGradient id="paint0_linear_187_7" x1="47" y1="21.9375" x2="47" y2="14.7187" gradientUnits="userSpaceOnUse">
<stop stop-color="#1F92E4"/>
<stop offset="1" stop-color="#1FC0E4"/>
</linearGradient>
<linearGradient id="paint1_linear_187_7" x1="25" y1="39.9375" x2="25" y2="32.7187" gradientUnits="userSpaceOnUse">
<stop stop-color="#1F92E4"/>
<stop offset="1" stop-color="#1FC0E4"/>
</linearGradient>
<linearGradient id="paint2_linear_187_7" x1="47" y1="57.9375" x2="47" y2="50.7187" gradientUnits="userSpaceOnUse">
<stop stop-color="#1F92E4"/>
<stop offset="1" stop-color="#1FC0E4"/>
</linearGradient>
</defs>
</svg>
