<svg width="72" height="72" viewBox="0 0 72 72" fill="none" xmlns="http://www.w3.org/2000/svg">
<path fill-rule="evenodd" clip-rule="evenodd" d="M42.7501 69.75V65.25H29.2501V69.75H42.7501ZM45.0001 63V58.5H27.0001V63H45.0001Z" fill="#636573"/>
<path d="M51.9498 8.81578C47.7212 4.58156 42.0568 2.25 36.0001 2.25C33.0434 2.24296 30.1144 2.82012 27.3814 3.94836C24.6484 5.07659 22.1652 6.73366 20.0744 8.82438C17.9837 10.9151 16.3267 13.3983 15.1984 16.1313C14.0702 18.8643 13.493 21.7933 13.5001 24.75C13.5001 31.3059 16.013 37.4386 20.3907 41.5744L21.0038 42.1495C23.5365 44.5176 27.0001 47.7619 27.0001 50.625V56.25H33.7501V37.8436L27.5232 34.3125L30.0938 30.6169L36.0001 33.75L41.8065 30.6014L44.4924 34.2126L38.2501 37.8689V56.25H45.0001V50.625C45.0001 47.8306 48.4226 44.5909 50.924 42.2231L50.9274 42.2198L51.6179 41.5645C56.1207 37.2656 58.5001 31.4451 58.5001 24.75C58.515 21.793 57.9438 18.8624 56.8195 16.1274C55.6952 13.3924 54.0401 10.9074 51.9498 8.81578Z" fill="url(#paint0_linear_187_30)"/>
<defs>
<linearGradient id="paint0_linear_187_30" x1="36.0002" y1="54.9843" x2="36.0002" y2="20.1796" gradientUnits="userSpaceOnUse">
<stop stop-color="#1F92E4"/>
<stop offset="1" stop-color="#1FC0E4"/>
</linearGradient>
</defs>
</svg>
